<?xml version="1.0" encoding="UTF-8" standalone="no"?>
<!-- Created with Inkscape (http://www.inkscape.org/) -->

<svg
   xmlns:dc="http://purl.org/dc/elements/1.1/"
   xmlns:cc="http://creativecommons.org/ns#"
   xmlns:rdf="http://www.w3.org/1999/02/22-rdf-syntax-ns#"
   xmlns:svg="http://www.w3.org/2000/svg"
   xmlns="http://www.w3.org/2000/svg"
   xmlns:sodipodi="http://sodipodi.sourceforge.net/DTD/sodipodi-0.dtd"
   xmlns:inkscape="http://www.inkscape.org/namespaces/inkscape"
   version="1.1"
   id="svg2"
   xml:space="preserve"
   width="1122.6667"
   height="793.33331"
   viewBox="0 0 1122.6667 793.33331"
   sodipodi:docname="Leistungsstufe.svg"
   inkscape:version="0.92.3 (2405546, 2018-03-11)"><metadata
     id="metadata8"><rdf:RDF><cc:Work
         rdf:about=""><dc:format>image/svg+xml</dc:format><dc:type
           rdf:resource="http://purl.org/dc/dcmitype/StillImage" /><dc:title></dc:title></cc:Work></rdf:RDF></metadata><defs
     id="defs6" /><sodipodi:namedview
     pagecolor="#ffffff"
     bordercolor="#666666"
     borderopacity="1"
     objecttolerance="10"
     gridtolerance="10"
     guidetolerance="10"
     inkscape:pageopacity="0"
     inkscape:pageshadow="2"
     inkscape:window-width="2560"
     inkscape:window-height="1335"
     id="namedview4"
     showgrid="false"
     inkscape:zoom="0.594958"
     inkscape:cx="33.660313"
     inkscape:cy="423.90525"
     inkscape:window-x="-13"
     inkscape:window-y="-13"
     inkscape:window-maximized="1"
     inkscape:current-layer="g10" /><g
     id="g10"
     inkscape:groupmode="layer"
     inkscape:label="Leistungsstufe"
     transform="matrix(0,1.3333333,1.3333333,0,0,0)"><path
       inkscape:connector-curvature="0"
       id="path62"
       style="fill:#ffffb0;fill-opacity:1;fill-rule:nonzero;stroke:none;stroke-width:0.12"
       d="m 129.24,266.6304 h 26.16 v 39.36 h -26.16 z" /><path
       inkscape:connector-curvature="0"
       id="path64"
       style="fill:none;stroke:#800000;stroke-width:0.12;stroke-linecap:round;stroke-linejoin:round;stroke-miterlimit:10;stroke-dasharray:none;stroke-opacity:1"
       d="m 129.12,266.5104 h 26.28 v 39.48 h -26.28 z" /><path
       inkscape:connector-curvature="0"
       id="path66"
       style="fill:#ffffb0;fill-opacity:1;fill-rule:nonzero;stroke:none;stroke-width:0.12"
       d="m 201.12,111.83064 h 26.16 v 39.36 h -26.16 z" /><path
       inkscape:connector-curvature="0"
       id="path68"
       style="fill:none;stroke:#800000;stroke-width:0.12;stroke-linecap:round;stroke-linejoin:round;stroke-miterlimit:10;stroke-dasharray:none;stroke-opacity:1"
       d="m 201,111.71064 h 26.28 v 39.48 H 201 Z" /><path
       inkscape:connector-curvature="0"
       id="path70"
       style="fill:#ffffb0;fill-opacity:1;fill-rule:nonzero;stroke:none;stroke-width:0.12"
       d="m 160.92,111.83064 h 26.16 v 39.36 h -26.16 z" /><path
       inkscape:connector-curvature="0"
       id="path72"
       style="fill:none;stroke:#800000;stroke-width:0.12;stroke-linecap:round;stroke-linejoin:round;stroke-miterlimit:10;stroke-dasharray:none;stroke-opacity:1"
       d="m 160.8,111.71064 h 26.28 v 39.48 H 160.8 Z" /><path
       inkscape:connector-curvature="0"
       id="path154"
       style="fill:none;stroke:#000000;stroke-width:0.52560002;stroke-linecap:round;stroke-linejoin:round;stroke-miterlimit:10;stroke-dasharray:none;stroke-opacity:1"
       d="m 173.88,250.1904 v -5.28" /><path
       inkscape:connector-curvature="0"
       id="path156"
       style="fill:#ffffff;fill-opacity:1;fill-rule:evenodd;stroke:none;stroke-width:0.12"
       d="m 173.88,250.1904 1.08,-3.12 h -2.16" /><path
       inkscape:connector-curvature="0"
       id="path158"
       style="fill:none;stroke:#000000;stroke-width:0.12;stroke-linecap:round;stroke-linejoin:round;stroke-miterlimit:10;stroke-dasharray:none;stroke-opacity:1"
       d="m 172.8,247.0704 1.08,3.12 1.08,-3.12 z" /><path
       inkscape:connector-curvature="0"
       id="path160"
       style="fill:none;stroke:#000000;stroke-width:0.52560002;stroke-linecap:round;stroke-linejoin:round;stroke-miterlimit:10;stroke-dasharray:none;stroke-opacity:1"
       d="m 163.32,260.7504 h -5.28" /><path
       inkscape:connector-curvature="0"
       id="path162"
       style="fill:#ffffff;fill-opacity:1;fill-rule:evenodd;stroke:none;stroke-width:0.12"
       d="m 163.32,260.7504 -3.12,-0.96 v 2.04" /><path
       inkscape:connector-curvature="0"
       id="path164"
       style="fill:none;stroke:#000000;stroke-width:0.12;stroke-linecap:round;stroke-linejoin:round;stroke-miterlimit:10;stroke-dasharray:none;stroke-opacity:1"
       d="m 160.2,259.7904 3.12,0.96 -3.12,1.08 z" /><path
       inkscape:connector-curvature="0"
       id="path166"
       style="fill:none;stroke:#000000;stroke-width:0.52560002;stroke-linecap:round;stroke-linejoin:round;stroke-miterlimit:10;stroke-dasharray:none;stroke-opacity:1"
       d="m 173.88,260.7504 h 5.28" /><path
       inkscape:connector-curvature="0"
       id="path168"
       style="fill:#ffffff;fill-opacity:1;fill-rule:evenodd;stroke:none;stroke-width:0.12"
       d="m 177.12,261.8304 v -2.04 l -3.24,0.96" /><path
       inkscape:connector-curvature="0"
       id="path170"
       style="fill:none;stroke:#000000;stroke-width:0.12;stroke-linecap:round;stroke-linejoin:round;stroke-miterlimit:10;stroke-dasharray:none;stroke-opacity:1"
       d="m 177.12,259.7904 -3.24,0.96 3.24,1.08 z" /><path
       inkscape:connector-curvature="0"
       id="path172"
       style="fill:none;stroke:#0000ff;stroke-width:0.52560002;stroke-linecap:round;stroke-linejoin:round;stroke-miterlimit:10;stroke-dasharray:none;stroke-opacity:1"
       d="m 163.32,254.9904 h 10.56" /><path
       inkscape:connector-curvature="0"
       id="path174"
       style="fill:none;stroke:#0000ff;stroke-width:0.52560002;stroke-linecap:round;stroke-linejoin:round;stroke-miterlimit:10;stroke-dasharray:none;stroke-opacity:1"
       d="m 163.32,260.7504 h 1.08" /><path
       inkscape:connector-curvature="0"
       id="path176"
       style="fill:none;stroke:#0000ff;stroke-width:0.52560002;stroke-linecap:round;stroke-linejoin:round;stroke-miterlimit:10;stroke-dasharray:none;stroke-opacity:1"
       d="m 164.4,260.7504 v -5.28" /><path
       inkscape:connector-curvature="0"
       id="path178"
       style="fill:none;stroke:#0000ff;stroke-width:0.52560002;stroke-linecap:round;stroke-linejoin:round;stroke-miterlimit:10;stroke-dasharray:none;stroke-opacity:1"
       d="m 168.6,258.7104 v 2.04" /><path
       inkscape:connector-curvature="0"
       id="path180"
       style="fill:none;stroke:#0000ff;stroke-width:0.52560002;stroke-linecap:round;stroke-linejoin:round;stroke-miterlimit:10;stroke-dasharray:none;stroke-opacity:1"
       d="m 168.6,260.7504 h 5.28" /><path
       inkscape:connector-curvature="0"
       id="path182"
       style="fill:none;stroke:#0000ff;stroke-width:0.52560002;stroke-linecap:round;stroke-linejoin:round;stroke-miterlimit:10;stroke-dasharray:none;stroke-opacity:1"
       d="m 172.8,255.4704 v 4.8" /><path
       inkscape:connector-curvature="0"
       id="path184"
       style="fill:none;stroke:#0000ff;stroke-width:0.52560002;stroke-linecap:round;stroke-linejoin:round;stroke-miterlimit:10;stroke-dasharray:none;stroke-opacity:1"
       d="m 163.32,260.7504 h 1.08" /><path
       inkscape:connector-curvature="0"
       id="path186"
       style="fill:none;stroke:#0000ff;stroke-width:0.52560002;stroke-linecap:round;stroke-linejoin:round;stroke-miterlimit:10;stroke-dasharray:none;stroke-opacity:1"
       d="m 164.4,260.7504 v -5.76" /><path
       inkscape:connector-curvature="0"
       id="path188"
       style="fill:none;stroke:#0000ff;stroke-width:0.52560002;stroke-linecap:round;stroke-linejoin:round;stroke-miterlimit:10;stroke-dasharray:none;stroke-opacity:1"
       d="m 163.32,254.9904 h 10.56" /><path
       inkscape:connector-curvature="0"
       id="path190"
       style="fill:none;stroke:#0000ff;stroke-width:0.52560002;stroke-linecap:round;stroke-linejoin:round;stroke-miterlimit:10;stroke-dasharray:none;stroke-opacity:1"
       d="m 172.8,254.9904 v 5.76" /><path
       inkscape:connector-curvature="0"
       id="path192"
       style="fill:none;stroke:#0000ff;stroke-width:0.52560002;stroke-linecap:round;stroke-linejoin:round;stroke-miterlimit:10;stroke-dasharray:none;stroke-opacity:1"
       d="m 168.6,254.9904 -2.64,2.64" /><path
       inkscape:connector-curvature="0"
       id="path194"
       style="fill:none;stroke:#0000ff;stroke-width:0.52560002;stroke-linecap:round;stroke-linejoin:round;stroke-miterlimit:10;stroke-dasharray:none;stroke-opacity:1"
       d="m 165.96,257.6304 h 5.28" /><path
       inkscape:connector-curvature="0"
       id="path196"
       style="fill:none;stroke:#0000ff;stroke-width:0.52560002;stroke-linecap:round;stroke-linejoin:round;stroke-miterlimit:10;stroke-dasharray:none;stroke-opacity:1"
       d="m 171.24,257.6304 -2.64,-2.64" /><path
       inkscape:connector-curvature="0"
       id="path198"
       style="fill:none;stroke:#0000ff;stroke-width:0.52560002;stroke-linecap:round;stroke-linejoin:round;stroke-miterlimit:10;stroke-dasharray:none;stroke-opacity:1"
       d="m 168.6,257.6304 v 3.12" /><path
       inkscape:connector-curvature="0"
       id="path200"
       style="fill:none;stroke:#0000ff;stroke-width:0.52560002;stroke-linecap:round;stroke-linejoin:round;stroke-miterlimit:10;stroke-dasharray:none;stroke-opacity:1"
       d="m 168.6,260.7504 h 5.28" /><path
       inkscape:connector-curvature="0"
       id="path202"
       style="fill:none;stroke:#0000ff;stroke-width:0.52560002;stroke-linecap:round;stroke-linejoin:round;stroke-miterlimit:10;stroke-dasharray:none;stroke-opacity:1"
       d="m 173.88,250.1904 v 2.64" /><path
       inkscape:connector-curvature="0"
       id="path204"
       style="fill:none;stroke:#0000ff;stroke-width:0.52560002;stroke-linecap:round;stroke-linejoin:round;stroke-miterlimit:10;stroke-dasharray:none;stroke-opacity:1"
       d="M 173.88,252.8304 H 163.32" /><g
       id="g206"><text
         id="text212"
         style="font-variant:normal;font-weight:normal;font-size:4.80240011px;font-family:'Times New Roman';-inkscape-font-specification:Times-Roman;writing-mode:lr-tb;fill:#000080;fill-opacity:1;fill-rule:nonzero;stroke:none"
         transform="matrix(0,1,0.99950025,0,167.16,262.431)"><tspan
           id="tspan208"
           sodipodi:role="line"
           y="0"
           x="0 3.4799891">Q1</tspan><tspan
           id="tspan210"
           sodipodi:role="line"
           y="5.28264"
           x="0 4.1999879 7.6799769 10.319964 12.959952 15.839961 18.719969 19.919983">MOSFET N</tspan></text>
</g><path
       inkscape:connector-curvature="0"
       id="path214"
       style="fill:none;stroke:#000000;stroke-width:0.52560002;stroke-linecap:round;stroke-linejoin:round;stroke-miterlimit:10;stroke-dasharray:none;stroke-opacity:1"
       d="m 173.88,196.9104 v -5.28" /><path
       inkscape:connector-curvature="0"
       id="path216"
       style="fill:none;stroke:#000000;stroke-width:0.52560002;stroke-linecap:round;stroke-linejoin:round;stroke-miterlimit:10;stroke-dasharray:none;stroke-opacity:1"
       d="m 173.88,212.7504 v 5.28" /><path
       inkscape:connector-curvature="0"
       id="path218"
       style="fill:none;stroke:#0000ff;stroke-width:0.52560002;stroke-linecap:round;stroke-linejoin:round;stroke-miterlimit:10;stroke-dasharray:none;stroke-opacity:1"
       d="m 171.24,196.9104 h 5.28 v 15.84 h -5.28 v -15.84" /><g
       id="g220"><text
         id="text226"
         style="font-variant:normal;font-weight:normal;font-size:4.80240011px;font-family:'Times New Roman';-inkscape-font-specification:Times-Roman;writing-mode:lr-tb;fill:#000080;fill-opacity:1;fill-rule:nonzero;stroke:none"
         transform="matrix(0,1,0.99950025,0,169.8,196.431)"><tspan
           id="tspan222"
           sodipodi:role="line"
           y="0"
           x="0 3.1199977">R1</tspan><tspan
           id="tspan224"
           sodipodi:role="line"
           y="11.52576"
           x="0 2.3999989">1k</tspan></text>
</g><path
       inkscape:connector-curvature="0"
       id="path228"
       style="fill:none;stroke:#000000;stroke-width:0.52560002;stroke-linecap:round;stroke-linejoin:round;stroke-miterlimit:10;stroke-dasharray:none;stroke-opacity:1"
       d="m 192.96,233.8704 h -5.28" /><path
       inkscape:connector-curvature="0"
       id="path230"
       style="fill:none;stroke:#000000;stroke-width:0.52560002;stroke-linecap:round;stroke-linejoin:round;stroke-miterlimit:10;stroke-dasharray:none;stroke-opacity:1"
       d="m 208.8,233.8704 h 5.28" /><path
       inkscape:connector-curvature="0"
       id="path232"
       style="fill:none;stroke:#0000ff;stroke-width:0.52560002;stroke-linecap:round;stroke-linejoin:round;stroke-miterlimit:10;stroke-dasharray:none;stroke-opacity:1"
       d="m 192.96,236.5104 v -5.28 h 15.84 v 5.28 h -15.84" /><g
       id="g234"><text
         id="text240"
         style="font-variant:normal;font-weight:normal;font-size:4.80240011px;font-family:'Times New Roman';-inkscape-font-specification:Times-Roman;writing-mode:lr-tb;fill:#000080;fill-opacity:1;fill-rule:nonzero;stroke:none"
         transform="matrix(0,1,0.99950025,0,196.68,237.111)"><tspan
           id="tspan236"
           sodipodi:role="line"
           y="0"
           x="0 3.1199977">R2</tspan><tspan
           id="tspan238"
           sodipodi:role="line"
           y="5.28264"
           x="0 2.3999989 4.7999978 7.1999965">100k</tspan></text>
</g><path
       inkscape:connector-curvature="0"
       id="path242"
       style="fill:none;stroke:#000080;stroke-width:0.52560002;stroke-linecap:round;stroke-linejoin:round;stroke-miterlimit:10;stroke-dasharray:none;stroke-opacity:1"
       d="m 221.4,147.2304 v 86.64 h -7.32" /><path
       inkscape:connector-curvature="0"
       id="path244"
       style="fill:#000080;fill-opacity:1;fill-rule:evenodd;stroke:none;stroke-width:0.12"
       d="m 221.4,171.4704 c -0.6,0 -1.08,-0.48 -1.08,-1.08 0,-0.48 0.48,-0.96 1.08,-0.96 0.48,0 0.96,0.48 0.96,0.96 0,0.6 -0.48,1.08 -0.96,1.08" /><path
       inkscape:connector-curvature="0"
       id="path246"
       style="fill:none;stroke:#000080;stroke-width:0.12;stroke-linecap:round;stroke-linejoin:round;stroke-miterlimit:10;stroke-dasharray:none;stroke-opacity:1"
       d="m 221.4,171.4704 c -0.6,0 -1.08,-0.48 -1.08,-1.08 0,-0.48 0.48,-0.96 1.08,-0.96 0.48,0 0.96,0.48 0.96,0.96 0,0.6 -0.48,1.08 -0.96,1.08 z" /><path
       inkscape:connector-curvature="0"
       id="path248"
       style="fill:#000080;fill-opacity:1;fill-rule:evenodd;stroke:none;stroke-width:0.12"
       d="m 221.4,234.8304 c -0.6,0 -1.08,-0.48 -1.08,-1.08 0,-0.48 0.48,-0.96 1.08,-0.96 0.48,0 0.96,0.48 0.96,0.96 0,0.6 -0.48,1.08 -0.96,1.08" /><path
       inkscape:connector-curvature="0"
       id="path250"
       style="fill:none;stroke:#000080;stroke-width:0.12;stroke-linecap:round;stroke-linejoin:round;stroke-miterlimit:10;stroke-dasharray:none;stroke-opacity:1"
       d="m 221.4,234.8304 c -0.6,0 -1.08,-0.48 -1.08,-1.08 0,-0.48 0.48,-0.96 1.08,-0.96 0.48,0 0.96,0.48 0.96,0.96 0,0.6 -0.48,1.08 -0.96,1.08 z" /><path
       inkscape:connector-curvature="0"
       id="path252"
       style="fill:none;stroke:#000080;stroke-width:0.52560002;stroke-linecap:round;stroke-linejoin:round;stroke-miterlimit:10;stroke-dasharray:none;stroke-opacity:1"
       d="m 221.4,233.8704 v 26.88 h -42.24" /><path
       inkscape:connector-curvature="0"
       id="path254"
       style="fill:#000080;fill-opacity:1;fill-rule:evenodd;stroke:none;stroke-width:0.12"
       d="m 221.4,234.8304 c -0.6,0 -1.08,-0.48 -1.08,-1.08 0,-0.48 0.48,-0.96 1.08,-0.96 0.48,0 0.96,0.48 0.96,0.96 0,0.6 -0.48,1.08 -0.96,1.08" /><path
       inkscape:connector-curvature="0"
       id="path256"
       style="fill:none;stroke:#000080;stroke-width:0.12;stroke-linecap:round;stroke-linejoin:round;stroke-miterlimit:10;stroke-dasharray:none;stroke-opacity:1"
       d="m 221.4,234.8304 c -0.6,0 -1.08,-0.48 -1.08,-1.08 0,-0.48 0.48,-0.96 1.08,-0.96 0.48,0 0.96,0.48 0.96,0.96 0,0.6 -0.48,1.08 -0.96,1.08 z" /><path
       inkscape:connector-curvature="0"
       id="path258"
       style="fill:none;stroke:#000080;stroke-width:0.52560002;stroke-linecap:round;stroke-linejoin:round;stroke-miterlimit:10;stroke-dasharray:none;stroke-opacity:1"
       d="m 173.88,218.0304 v 26.88" /><path
       inkscape:connector-curvature="0"
       id="path260"
       style="fill:#000080;fill-opacity:1;fill-rule:evenodd;stroke:none;stroke-width:0.12"
       d="m 173.88,234.8304 c -0.6,0 -1.08,-0.48 -1.08,-1.08 0,-0.48 0.48,-0.96 1.08,-0.96 0.48,0 0.96,0.48 0.96,0.96 0,0.6 -0.48,1.08 -0.96,1.08" /><path
       inkscape:connector-curvature="0"
       id="path262"
       style="fill:none;stroke:#000080;stroke-width:0.12;stroke-linecap:round;stroke-linejoin:round;stroke-miterlimit:10;stroke-dasharray:none;stroke-opacity:1"
       d="m 173.88,234.8304 c -0.6,0 -1.08,-0.48 -1.08,-1.08 0,-0.48 0.48,-0.96 1.08,-0.96 0.48,0 0.96,0.48 0.96,0.96 0,0.6 -0.48,1.08 -0.96,1.08 z" /><path
       inkscape:connector-curvature="0"
       id="path264"
       style="fill:#000080;fill-opacity:1;fill-rule:evenodd;stroke:none;stroke-width:0.12"
       d="m 173.88,235.3104 c -0.6,0 -1.08,-0.48 -1.08,-0.96 0,-0.6 0.48,-0.96 1.08,-0.96 0.48,0 0.96,0.36 0.96,0.96 0,0.48 -0.48,0.96 -0.96,0.96" /><path
       inkscape:connector-curvature="0"
       id="path266"
       style="fill:none;stroke:#000080;stroke-width:0.12;stroke-linecap:round;stroke-linejoin:round;stroke-miterlimit:10;stroke-dasharray:none;stroke-opacity:1"
       d="m 173.88,235.3104 c -0.6,0 -1.08,-0.48 -1.08,-0.96 0,-0.6 0.48,-0.96 1.08,-0.96 0.48,0 0.96,0.36 0.96,0.96 0,0.48 -0.48,0.96 -0.96,0.96 z" /><path
       inkscape:connector-curvature="0"
       id="path268"
       style="fill:none;stroke:#000080;stroke-width:0.52560002;stroke-linecap:round;stroke-linejoin:round;stroke-miterlimit:10;stroke-dasharray:none;stroke-opacity:1"
       d="m 187.68,233.8704 h -13.8 v 0.48" /><path
       inkscape:connector-curvature="0"
       id="path270"
       style="fill:#000080;fill-opacity:1;fill-rule:evenodd;stroke:none;stroke-width:0.12"
       d="m 173.88,234.8304 c -0.6,0 -1.08,-0.48 -1.08,-1.08 0,-0.48 0.48,-0.96 1.08,-0.96 0.48,0 0.96,0.48 0.96,0.96 0,0.6 -0.48,1.08 -0.96,1.08" /><path
       inkscape:connector-curvature="0"
       id="path272"
       style="fill:none;stroke:#000080;stroke-width:0.12;stroke-linecap:round;stroke-linejoin:round;stroke-miterlimit:10;stroke-dasharray:none;stroke-opacity:1"
       d="m 173.88,234.8304 c -0.6,0 -1.08,-0.48 -1.08,-1.08 0,-0.48 0.48,-0.96 1.08,-0.96 0.48,0 0.96,0.48 0.96,0.96 0,0.6 -0.48,1.08 -0.96,1.08 z" /><path
       inkscape:connector-curvature="0"
       id="path274"
       style="fill:#000080;fill-opacity:1;fill-rule:evenodd;stroke:none;stroke-width:0.12"
       d="m 173.88,235.3104 c -0.6,0 -1.08,-0.48 -1.08,-0.96 0,-0.6 0.48,-0.96 1.08,-0.96 0.48,0 0.96,0.36 0.96,0.96 0,0.48 -0.48,0.96 -0.96,0.96" /><path
       inkscape:connector-curvature="0"
       id="path276"
       style="fill:none;stroke:#000080;stroke-width:0.12;stroke-linecap:round;stroke-linejoin:round;stroke-miterlimit:10;stroke-dasharray:none;stroke-opacity:1"
       d="m 173.88,235.3104 c -0.6,0 -1.08,-0.48 -1.08,-0.96 0,-0.6 0.48,-0.96 1.08,-0.96 0.48,0 0.96,0.36 0.96,0.96 0,0.48 -0.48,0.96 -0.96,0.96 z" /><path
       inkscape:connector-curvature="0"
       id="path278"
       style="fill:none;stroke:#000080;stroke-width:0.52560002;stroke-linecap:round;stroke-linejoin:round;stroke-miterlimit:10;stroke-dasharray:none;stroke-opacity:1"
       d="m 173.88,191.6304 v -44.4" /><path
       inkscape:connector-curvature="0"
       id="path280"
       style="fill:none;stroke:#000080;stroke-width:0.52560002;stroke-linecap:round;stroke-linejoin:round;stroke-miterlimit:10;stroke-dasharray:none;stroke-opacity:1"
       d="m 181.32,147.2304 v 23.28 h 40.08" /><path
       inkscape:connector-curvature="0"
       id="path282"
       style="fill:#000080;fill-opacity:1;fill-rule:evenodd;stroke:none;stroke-width:0.12"
       d="m 221.4,171.4704 c -0.6,0 -1.08,-0.48 -1.08,-1.08 0,-0.48 0.48,-0.96 1.08,-0.96 0.48,0 0.96,0.48 0.96,0.96 0,0.6 -0.48,1.08 -0.96,1.08" /><path
       inkscape:connector-curvature="0"
       id="path284"
       style="fill:none;stroke:#000080;stroke-width:0.12;stroke-linecap:round;stroke-linejoin:round;stroke-miterlimit:10;stroke-dasharray:none;stroke-opacity:1"
       d="m 221.4,171.4704 c -0.6,0 -1.08,-0.48 -1.08,-1.08 0,-0.48 0.48,-0.96 1.08,-0.96 0.48,0 0.96,0.48 0.96,0.96 0,0.6 -0.48,1.08 -0.96,1.08 z" /><path
       inkscape:connector-curvature="0"
       id="path286"
       style="fill:none;stroke:#000080;stroke-width:0.52560002;stroke-linecap:round;stroke-linejoin:round;stroke-miterlimit:10;stroke-dasharray:none;stroke-opacity:1"
       d="m 212.4,147.2304 v 12.72 h -71.28 v 108.72" /><path
       inkscape:connector-curvature="0"
       id="path288"
       style="fill:none;stroke:#000080;stroke-width:0.52560002;stroke-linecap:round;stroke-linejoin:round;stroke-miterlimit:10;stroke-dasharray:none;stroke-opacity:1"
       d="m 149.64,268.6704 v -7.92 h 8.4" /><path
       inkscape:connector-curvature="0"
       id="path290"
       style="fill:#ffff80;fill-opacity:1;fill-rule:evenodd;stroke:none;stroke-width:0.12"
       d="m 176.52,117.59064 h -5.28 v 26.99976 l 2.64,2.64 2.64,-2.64" /><path
       inkscape:connector-curvature="0"
       id="path292"
       style="fill:none;stroke:#800000;stroke-width:0.12;stroke-linecap:round;stroke-linejoin:round;stroke-miterlimit:10;stroke-dasharray:none;stroke-opacity:1"
       d="m 176.52,117.59064 h -5.28 v 26.99976 l 2.64,2.64 2.64,-2.64 z" /><g
       id="g294"><text
         id="text298"
         style="font-variant:normal;font-weight:normal;font-size:4.68238688px;font-family:Helvetica;-inkscape-font-specification:Helvetica;writing-mode:lr-tb;fill:#800000;fill-opacity:1;fill-rule:nonzero;stroke:none"
         transform="matrix(0,1,0.99949026,0,175.56,122.991)"><tspan
           id="tspan296"
           sodipodi:role="line"
           y="0"
           x="0 3.119988 5.9999838 9.1199722 11.759971 14.399969 15.719969 17.039968 18.359968 20.999966">PTB18 / 20</tspan></text>
</g><path
       inkscape:connector-curvature="0"
       id="path300"
       style="fill:#ffff80;fill-opacity:1;fill-rule:evenodd;stroke:none;stroke-width:0.12"
       d="m 183.96,117.59064 h -5.28 v 26.99976 l 2.64,2.64 2.64,-2.64" /><path
       inkscape:connector-curvature="0"
       id="path302"
       style="fill:none;stroke:#800000;stroke-width:0.12;stroke-linecap:round;stroke-linejoin:round;stroke-miterlimit:10;stroke-dasharray:none;stroke-opacity:1"
       d="m 183.96,117.59064 h -5.28 v 26.99976 l 2.64,2.64 2.64,-2.64 z" /><g
       id="g304"><text
         id="text308"
         style="font-variant:normal;font-weight:normal;font-size:4.68238688px;font-family:Helvetica;-inkscape-font-specification:Helvetica;writing-mode:lr-tb;fill:#800000;fill-opacity:1;fill-rule:nonzero;stroke:none"
         transform="matrix(0,1,0.99949026,0,183,124.311)"><tspan
           id="tspan306"
           sodipodi:role="line"
           y="0"
           x="0 3.7199914 7.0799766 10.439961 11.759961 13.079961 14.39996 17.039959">GND / 21</tspan></text>
</g><path
       inkscape:connector-curvature="0"
       id="path310"
       style="fill:#ffff80;fill-opacity:1;fill-rule:evenodd;stroke:none;stroke-width:0.12"
       d="m 224.04,117.59064 h -5.28 v 26.99976 l 2.64,2.64 2.64,-2.64" /><path
       inkscape:connector-curvature="0"
       id="path312"
       style="fill:none;stroke:#800000;stroke-width:0.12;stroke-linecap:round;stroke-linejoin:round;stroke-miterlimit:10;stroke-dasharray:none;stroke-opacity:1"
       d="m 224.04,117.59064 h -5.28 v 26.99976 l 2.64,2.64 2.64,-2.64 z" /><g
       id="g314"><text
         id="text318"
         style="font-variant:normal;font-weight:normal;font-size:4.68238688px;font-family:Helvetica;-inkscape-font-specification:Helvetica;writing-mode:lr-tb;fill:#800000;fill-opacity:1;fill-rule:nonzero;stroke:none"
         transform="matrix(0,1,0.99949026,0,223.08,122.991)"><tspan
           id="tspan316"
           sodipodi:role="line"
           y="0"
           x="0 2.8799887">V-</tspan></text>
</g><path
       inkscape:connector-curvature="0"
       id="path320"
       style="fill:#ffff80;fill-opacity:1;fill-rule:evenodd;stroke:none;stroke-width:0.12"
       d="m 215.04,117.59064 h -5.28 v 26.99976 l 2.64,2.64 2.64,-2.64" /><path
       inkscape:connector-curvature="0"
       id="path322"
       style="fill:none;stroke:#800000;stroke-width:0.12;stroke-linecap:round;stroke-linejoin:round;stroke-miterlimit:10;stroke-dasharray:none;stroke-opacity:1"
       d="m 215.04,117.59064 h -5.28 v 26.99976 l 2.64,2.64 2.64,-2.64 z" /><g
       id="g324"><text
         id="text328"
         style="font-variant:normal;font-weight:normal;font-size:4.68238688px;font-family:Helvetica;-inkscape-font-specification:Helvetica;writing-mode:lr-tb;fill:#800000;fill-opacity:1;fill-rule:nonzero;stroke:none"
         transform="matrix(0,1,0.99949026,0,214.08,122.991)"><tspan
           id="tspan326"
           sodipodi:role="line"
           y="0"
           x="0 3.119988">V+</tspan></text>
</g><g
       id="g330"><text
         id="text336"
         style="font-variant:normal;font-weight:normal;font-size:4.80240011px;font-family:'Times New Roman';-inkscape-font-specification:Times-Roman;writing-mode:lr-tb;fill:#000080;fill-opacity:1;fill-rule:nonzero;stroke:none"
         transform="matrix(0,1,0.99950025,0,167.64,112.911)"><tspan
           id="tspan332"
           sodipodi:role="line"
           y="0"
           x="0 1.5599999 3.9599988 6.3599977 8.7599964 10.07999 11.159989 13.919984 15.239978 17.639977 20.039976 23.519979 25.919977">Input TinyK22</tspan><tspan
           id="tspan334"
           sodipodi:role="line"
           y="39.619801"
           x="0.59999985 2.1599998 4.5599985 6.9599977 9.3599968 10.67999 11.87999 14.519992 16.919991 20.399994 22.55999">Input Power</tspan></text>
</g><path
       inkscape:connector-curvature="0"
       id="path338"
       style="fill:#ffff80;fill-opacity:1;fill-rule:evenodd;stroke:none;stroke-width:0.12"
       d="m 143.76,268.6704 h -5.28 v 27 l 2.64,2.64 2.64,-2.64" /><path
       inkscape:connector-curvature="0"
       id="path340"
       style="fill:none;stroke:#800000;stroke-width:0.12;stroke-linecap:round;stroke-linejoin:round;stroke-miterlimit:10;stroke-dasharray:none;stroke-opacity:1"
       d="m 143.76,268.6704 h -5.28 v 27 l 2.64,2.64 2.64,-2.64 z" /><g
       id="g342"><text
         id="text346"
         style="font-variant:normal;font-weight:normal;font-size:4.68238688px;font-family:Helvetica;-inkscape-font-specification:Helvetica;writing-mode:lr-tb;fill:#800000;fill-opacity:1;fill-rule:nonzero;stroke:none"
         transform="matrix(0,1,0.99949026,0,142.92,274.071)"><tspan
           id="tspan344"
           sodipodi:role="line"
           y="0"
           x="0 3.119988">V+</tspan></text>
</g><path
       inkscape:connector-curvature="0"
       id="path348"
       style="fill:#ffff80;fill-opacity:1;fill-rule:evenodd;stroke:none;stroke-width:0.12"
       d="M 152.28,268.6704 H 147 v 27 l 2.64,2.64 2.64,-2.64" /><path
       inkscape:connector-curvature="0"
       id="path350"
       style="fill:none;stroke:#800000;stroke-width:0.12;stroke-linecap:round;stroke-linejoin:round;stroke-miterlimit:10;stroke-dasharray:none;stroke-opacity:1"
       d="M 152.28,268.6704 H 147 v 27 l 2.64,2.64 2.64,-2.64 z" /><g
       id="g352"><text
         id="text356"
         style="font-variant:normal;font-weight:normal;font-size:4.68238688px;font-family:Helvetica;-inkscape-font-specification:Helvetica;writing-mode:lr-tb;fill:#800000;fill-opacity:1;fill-rule:nonzero;stroke:none"
         transform="matrix(0,1,0.99949026,0,151.32,274.071)"><tspan
           id="tspan354"
           sodipodi:role="line"
           y="0"
           x="0 2.8799887">V-</tspan></text>
</g><g
       id="g358"><text
         id="text362"
         style="font-variant:normal;font-weight:normal;font-size:4.80240011px;font-family:'Times New Roman';-inkscape-font-specification:Times-Roman;writing-mode:lr-tb;fill:#000080;fill-opacity:1;fill-rule:nonzero;stroke:none"
         transform="matrix(0,1,0.99950025,0,135.96,267.711)"><tspan
           id="tspan360"
           sodipodi:role="line"
           y="0"
           x="0 3.4799891 5.8799877 7.1999965 9.5999956 11.999994 13.320003 14.520017 18.000006 20.160015 22.320024 23.640034 25.800043">Output Heater</tspan></text>
</g></g></svg>